<svg id="svg" version="1.1" xmlns="http://www.w3.org/2000/svg" xmlns:xlink="http://www.w3.org/1999/xlink" width="400" height="400" viewBox="0, 0, 400,400"><g id="svgg"><path id="path0" d="M139.140 187.276 C 137.237 189.544,135.291 191.850,134.816 192.400 C 134.340 192.950,133.647 193.765,133.276 194.210 C 127.961 200.583,126.512 202.293,125.996 202.800 C 125.660 203.130,124.581 204.390,123.598 205.600 C 122.615 206.810,121.711 207.890,121.589 208.000 C 121.467 208.110,119.551 210.360,117.332 213.000 C 115.113 215.640,112.961 218.189,112.549 218.664 C 112.137 219.139,111.179 220.287,110.421 221.215 C 109.662 222.142,108.852 223.108,108.621 223.360 C 108.104 223.924,105.510 226.995,99.804 233.800 C 97.406 236.660,95.344 239.090,95.222 239.200 C 94.995 239.404,91.604 243.395,90.124 245.200 C 89.672 245.750,87.615 248.181,85.552 250.603 C 83.488 253.025,80.993 255.995,80.007 257.203 C 79.021 258.411,77.938 259.670,77.600 260.000 C 77.262 260.330,76.181 261.590,75.198 262.800 C 74.215 264.010,73.316 265.090,73.200 265.200 C 73.084 265.310,72.210 266.345,71.257 267.500 C 70.304 268.656,69.340 269.486,69.113 269.347 C 68.423 268.920,69.249 281.669,70.360 288.600 C 73.216 306.408,79.187 322.403,88.727 337.800 C 91.163 341.731,91.563 342.316,94.953 346.900 L 97.245 350.000 200.122 349.985 L 303.000 349.970 304.193 348.285 C 304.849 347.358,306.402 345.159,307.645 343.397 C 331.514 309.564,337.653 265.416,323.996 225.800 C 321.726 219.217,315.637 205.600,314.962 205.600 C 314.847 205.600,314.880 205.806,315.035 206.057 C 315.378 206.611,315.961 211.375,316.253 216.000 C 316.501 219.929,315.681 226.061,314.382 229.982 C 307.934 249.452,292.955 254.396,264.800 246.345 C 264.030 246.124,262.950 245.853,262.400 245.742 C 261.850 245.631,261.040 245.387,260.600 245.200 C 260.160 245.013,259.260 244.749,258.600 244.612 C 257.940 244.476,256.680 244.182,255.800 243.960 C 254.920 243.738,253.480 243.396,252.600 243.200 C 251.720 243.004,250.190 242.643,249.200 242.397 C 245.326 241.435,237.490 240.028,231.000 239.128 C 225.914 238.424,193.165 238.415,188.000 239.116 C 181.248 240.034,178.034 240.539,172.300 241.582 C 171.145 241.792,169.570 242.074,168.800 242.209 C 168.030 242.344,167.040 242.610,166.600 242.800 C 166.160 242.990,165.260 243.237,164.600 243.349 C 162.493 243.705,161.022 244.051,160.200 244.385 C 159.760 244.563,158.590 244.937,157.600 245.216 C 152.237 246.728,144.574 249.454,140.200 251.406 C 130.617 255.684,130.670 255.676,131.018 252.700 C 131.154 251.545,131.354 250.330,131.464 250.000 C 131.574 249.670,131.822 248.500,132.014 247.400 C 132.207 246.300,132.741 243.240,133.200 240.600 C 133.659 237.960,134.207 234.855,134.417 233.700 C 134.628 232.545,134.980 230.610,135.200 229.400 C 135.420 228.190,135.780 226.210,136.000 225.000 C 136.220 223.790,136.589 221.765,136.820 220.500 C 137.051 219.235,137.402 217.210,137.600 216.000 C 137.798 214.790,138.139 212.810,138.357 211.600 C 138.576 210.390,139.041 207.780,139.391 205.800 C 139.742 203.820,140.472 199.786,141.014 196.835 C 141.556 193.884,142.000 190.716,142.000 189.795 C 142.000 188.873,142.192 187.567,142.428 186.892 C 143.841 182.837,142.758 182.964,139.140 187.276 M68.995 258.911 C 68.843 260.327,68.792 261.826,68.880 262.242 C 68.969 262.659,69.177 261.584,69.342 259.854 C 69.507 258.124,69.558 256.625,69.456 256.523 C 69.354 256.421,69.146 257.495,68.995 258.911 M148.372 262.853 C 169.693 269.610,165.997 300.000,143.853 300.000 C 121.641 300.000,117.734 270.127,139.000 262.893 C 140.658 262.329,146.638 262.303,148.372 262.853 M268.602 263.414 C 273.723 265.270,277.106 268.280,279.488 273.098 L 281.000 276.159 281.000 281.379 C 281.000 306.007,245.055 306.419,243.708 281.807 C 243.362 275.484,246.520 269.321,252.022 265.585 C 253.306 264.713,254.548 264.000,254.783 264.000 C 255.019 264.000,255.523 263.841,255.905 263.647 C 259.021 262.064,264.594 261.962,268.602 263.414 " stroke="none" fill="#f0d9b9" fill-rule="evenodd"></path><path id="path1" d="M183.405 49.991 C 183.266 50.216,181.723 50.400,179.976 50.400 C 178.125 50.400,176.800 50.567,176.800 50.800 C 176.800 51.026,175.667 51.200,174.200 51.200 C 172.733 51.200,171.600 51.374,171.600 51.600 C 171.600 51.820,170.621 52.000,169.424 52.000 C 168.227 52.000,167.136 52.180,167.000 52.400 C 166.864 52.620,165.964 52.800,165.000 52.800 C 164.036 52.800,163.136 52.980,163.000 53.200 C 162.864 53.420,162.144 53.600,161.400 53.600 C 160.656 53.600,159.936 53.780,159.800 54.000 C 159.664 54.220,158.933 54.400,158.176 54.400 C 157.419 54.400,156.800 54.580,156.800 54.800 C 156.800 55.020,156.181 55.200,155.424 55.200 C 154.667 55.200,153.936 55.380,153.800 55.600 C 153.664 55.820,153.023 56.000,152.376 56.000 C 151.729 56.000,151.200 56.180,151.200 56.400 C 151.200 56.620,150.480 56.800,149.600 56.800 C 148.720 56.800,148.000 56.980,148.000 57.200 C 148.000 57.420,147.460 57.600,146.800 57.600 C 146.140 57.600,145.600 57.780,145.600 58.000 C 145.600 58.220,145.294 58.400,144.920 58.400 C 143.838 58.400,139.600 59.745,139.600 60.089 C 139.600 60.260,139.245 60.400,138.812 60.400 C 138.379 60.400,137.378 60.763,136.589 61.206 C 135.799 61.650,134.713 62.049,134.176 62.094 C 133.639 62.138,133.200 62.315,133.200 62.487 C 133.200 62.659,132.840 62.800,132.400 62.800 C 131.960 62.800,131.600 62.980,131.600 63.200 C 131.600 63.420,131.240 63.600,130.800 63.600 C 130.360 63.600,130.000 63.780,130.000 64.000 C 130.000 64.220,129.651 64.400,129.224 64.400 C 128.797 64.400,128.336 64.580,128.200 64.800 C 128.064 65.020,127.603 65.200,127.176 65.200 C 126.749 65.200,126.400 65.380,126.400 65.600 C 126.400 65.820,126.040 66.000,125.600 66.000 C 125.160 66.000,124.799 66.135,124.797 66.300 C 124.793 66.659,122.856 67.600,122.120 67.600 C 121.834 67.600,121.600 67.780,121.600 68.000 C 121.600 68.220,121.240 68.400,120.800 68.400 C 120.360 68.400,120.000 68.580,120.000 68.800 C 120.000 69.020,119.680 69.200,119.288 69.200 C 118.897 69.200,118.317 69.560,118.000 70.000 C 117.683 70.440,117.103 70.800,116.712 70.800 C 116.320 70.800,116.000 70.980,116.000 71.200 C 116.000 71.420,115.640 71.600,115.200 71.600 C 114.760 71.600,114.400 71.780,114.400 72.000 C 114.400 72.220,114.164 72.400,113.875 72.400 C 113.587 72.400,113.002 72.715,112.575 73.100 C 112.149 73.485,111.260 74.070,110.600 74.400 C 109.517 74.942,107.729 76.042,105.942 77.265 C 105.580 77.513,105.161 77.678,105.012 77.632 C 104.862 77.585,104.417 77.919,104.023 78.374 C 103.629 78.828,103.147 79.200,102.953 79.201 C 102.759 79.201,101.970 79.741,101.200 80.400 C 100.430 81.059,99.615 81.599,99.388 81.599 C 99.162 81.600,98.717 81.960,98.400 82.400 C 98.083 82.840,97.593 83.200,97.312 83.200 C 97.030 83.200,96.800 83.380,96.800 83.600 C 96.800 83.820,96.519 84.000,96.176 84.000 C 95.833 84.000,95.647 84.153,95.763 84.340 C 95.878 84.527,95.529 84.917,94.986 85.207 C 94.444 85.498,94.000 85.885,94.000 86.068 C 94.000 86.250,93.808 86.400,93.574 86.400 C 93.340 86.400,92.271 87.300,91.200 88.400 C 90.129 89.500,89.066 90.400,88.839 90.400 C 88.091 90.400,77.711 100.471,73.800 104.993 C 72.700 106.264,70.855 108.291,69.700 109.496 C 68.545 110.702,67.600 111.848,67.600 112.044 C 67.600 112.239,66.880 113.141,66.000 114.048 C 65.120 114.955,64.400 115.945,64.400 116.248 C 64.400 116.552,64.265 116.801,64.100 116.803 C 63.935 116.804,63.350 117.479,62.801 118.303 C 62.251 119.126,61.576 120.038,61.301 120.329 C 61.025 120.619,60.800 120.996,60.800 121.166 C 60.800 121.336,60.345 121.999,59.790 122.638 C 59.234 123.277,58.674 124.205,58.546 124.700 C 58.418 125.195,58.153 125.600,57.957 125.600 C 57.760 125.600,57.600 125.870,57.600 126.200 C 57.600 126.530,57.420 126.800,57.200 126.800 C 56.980 126.800,56.800 127.081,56.800 127.424 C 56.800 127.767,56.620 127.936,56.400 127.800 C 56.180 127.664,56.000 127.841,56.000 128.193 C 56.000 128.545,55.640 129.220,55.200 129.692 C 54.760 130.164,54.400 130.787,54.400 131.075 C 54.400 131.364,54.220 131.600,54.000 131.600 C 53.780 131.600,53.600 131.960,53.600 132.400 C 53.600 132.840,53.420 133.200,53.200 133.200 C 52.980 133.200,52.800 133.520,52.800 133.912 C 52.800 134.303,52.440 134.883,52.000 135.200 C 51.560 135.517,51.200 136.097,51.200 136.488 C 51.200 136.880,51.020 137.200,50.800 137.200 C 50.580 137.200,50.400 137.560,50.400 138.000 C 50.400 138.440,50.220 138.800,50.000 138.800 C 49.780 138.800,49.600 139.160,49.600 139.600 C 49.600 140.040,49.420 140.400,49.200 140.400 C 48.980 140.400,48.800 140.760,48.800 141.200 C 48.800 141.640,48.620 142.000,48.400 142.000 C 48.180 142.000,48.000 142.360,48.000 142.800 C 48.000 143.240,47.820 143.600,47.600 143.600 C 47.380 143.600,47.200 143.870,47.200 144.200 C 47.200 144.530,47.020 144.800,46.800 144.800 C 46.580 144.800,46.400 145.149,46.400 145.576 C 46.400 146.003,46.220 146.464,46.000 146.600 C 45.780 146.736,45.600 147.197,45.600 147.624 C 45.600 148.051,45.420 148.400,45.200 148.400 C 44.980 148.400,44.800 148.850,44.800 149.400 C 44.800 149.950,44.620 150.400,44.400 150.400 C 44.180 150.400,44.000 150.760,44.000 151.200 C 44.000 151.640,43.850 152.000,43.667 152.000 C 43.483 152.000,43.317 152.225,43.296 152.500 C 43.246 153.173,42.092 156.429,41.597 157.295 C 41.379 157.677,41.200 158.352,41.200 158.795 C 41.200 159.238,41.020 159.600,40.800 159.600 C 40.580 159.600,40.400 160.129,40.400 160.776 C 40.400 161.423,40.220 162.064,40.000 162.200 C 39.780 162.336,39.600 162.887,39.600 163.424 C 39.600 163.961,39.420 164.400,39.200 164.400 C 38.980 164.400,38.800 164.940,38.800 165.600 C 38.800 166.260,38.620 166.800,38.400 166.800 C 38.180 166.800,38.000 167.340,38.000 168.000 C 38.000 168.660,37.820 169.200,37.600 169.200 C 37.380 169.200,37.200 169.920,37.200 170.800 C 37.200 171.680,37.020 172.400,36.800 172.400 C 36.580 172.400,36.400 172.940,36.400 173.600 C 36.400 174.260,36.220 174.800,36.000 174.800 C 35.780 174.800,35.600 175.520,35.600 176.400 C 35.600 177.280,35.420 178.000,35.200 178.000 C 34.980 178.000,34.800 178.810,34.800 179.800 C 34.800 180.790,34.620 181.600,34.400 181.600 C 34.180 181.600,34.000 182.399,34.000 183.376 C 34.000 184.353,33.820 185.264,33.600 185.400 C 33.380 185.536,33.200 186.526,33.200 187.600 C 33.200 188.674,33.020 189.664,32.800 189.800 C 32.580 189.936,32.400 191.081,32.400 192.344 C 32.400 193.607,32.234 194.811,32.030 195.020 C 31.182 195.891,30.357 230.886,31.144 232.600 C 31.346 233.040,31.722 235.020,31.980 237.000 C 32.735 242.810,32.803 243.283,33.242 245.800 C 34.949 255.589,38.600 269.548,40.775 274.600 C 40.964 275.040,41.336 276.030,41.600 276.800 C 41.864 277.570,42.243 278.605,42.440 279.100 C 42.638 279.595,42.957 280.405,43.149 280.900 C 46.083 288.458,55.596 306.363,58.717 310.200 C 58.896 310.420,60.010 312.040,61.192 313.800 C 68.609 324.840,83.538 340.829,93.600 348.509 C 97.543 351.519,97.974 350.987,94.930 346.870 C 91.563 342.317,91.159 341.725,88.727 337.800 C 70.451 308.304,64.209 271.608,72.022 239.600 C 72.210 238.830,72.483 237.660,72.628 237.000 C 75.547 223.741,80.905 210.253,86.461 202.179 C 87.637 200.469,89.834 197.254,91.343 195.035 C 106.148 173.257,127.268 156.378,152.200 146.398 C 156.379 144.726,163.876 142.276,166.731 141.650 C 169.028 141.147,169.018 141.199,167.187 139.234 C 163.543 135.327,162.493 133.848,160.001 129.106 C 154.175 118.025,155.111 97.554,162.159 81.892 C 165.046 75.475,170.486 65.465,172.308 63.214 L 173.076 62.266 174.815 64.633 C 180.655 72.584,184.682 75.013,193.000 75.603 C 208.559 76.706,220.221 82.601,226.613 92.594 C 234.509 104.937,232.387 126.339,222.197 137.141 C 220.741 138.684,220.734 139.200,222.170 139.200 C 225.083 139.200,242.777 144.030,245.695 145.621 C 246.077 145.830,246.567 146.000,246.785 146.000 C 247.002 146.000,248.309 146.508,249.690 147.130 C 251.070 147.751,252.830 148.510,253.600 148.816 C 255.145 149.432,261.347 152.574,263.700 153.933 C 264.525 154.410,265.834 155.159,266.608 155.598 C 277.052 161.515,288.760 171.055,301.353 183.911 C 308.257 190.959,318.548 209.997,323.996 225.800 C 338.365 267.482,330.999 312.846,304.096 348.351 C 297.642 356.868,320.025 337.395,328.868 326.800 C 333.547 321.194,338.130 315.126,340.600 311.268 C 340.820 310.925,341.315 310.285,341.700 309.846 C 342.085 309.408,342.400 308.813,342.400 308.525 C 342.400 308.236,342.535 307.999,342.700 307.997 C 342.865 307.995,343.200 307.590,343.445 307.097 C 343.689 306.604,344.822 304.670,345.963 302.800 C 347.104 300.930,349.758 295.890,351.862 291.600 C 355.483 284.215,356.024 283.056,356.854 280.900 C 357.044 280.405,357.362 279.595,357.560 279.100 C 357.757 278.605,358.136 277.570,358.400 276.800 C 358.664 276.030,359.036 275.040,359.225 274.600 C 361.209 269.991,365.002 255.797,366.387 247.800 C 366.844 245.160,367.484 241.646,367.809 239.991 C 368.134 238.336,368.400 235.951,368.400 234.691 C 368.400 233.430,368.580 232.400,368.800 232.400 C 369.060 232.400,369.200 227.075,369.200 217.224 C 369.200 207.537,369.055 201.958,368.800 201.800 C 368.580 201.664,368.400 200.134,368.400 198.400 C 368.400 196.666,368.220 195.136,368.000 195.000 C 367.780 194.864,367.600 193.694,367.600 192.400 C 367.600 191.106,367.420 189.936,367.200 189.800 C 366.980 189.664,366.800 188.674,366.800 187.600 C 366.800 186.526,366.620 185.536,366.400 185.400 C 366.180 185.264,366.000 184.353,366.000 183.376 C 366.000 182.399,365.820 181.600,365.600 181.600 C 365.380 181.600,365.200 180.790,365.200 179.800 C 365.200 178.810,365.020 178.000,364.800 178.000 C 364.580 178.000,364.400 177.280,364.400 176.400 C 364.400 175.520,364.220 174.800,364.000 174.800 C 363.780 174.800,363.600 174.260,363.600 173.600 C 363.600 172.940,363.420 172.400,363.200 172.400 C 362.980 172.400,362.800 171.680,362.800 170.800 C 362.800 169.920,362.620 169.200,362.400 169.200 C 362.180 169.200,362.000 168.660,362.000 168.000 C 362.000 167.340,361.820 166.800,361.600 166.800 C 361.380 166.800,361.200 166.260,361.200 165.600 C 361.200 164.940,361.020 164.400,360.800 164.400 C 360.580 164.400,360.400 163.961,360.400 163.424 C 360.400 162.887,360.220 162.336,360.000 162.200 C 359.780 162.064,359.600 161.423,359.600 160.776 C 359.600 160.129,359.420 159.600,359.200 159.600 C 358.980 159.600,358.799 159.195,358.798 158.700 C 358.796 158.205,358.526 157.284,358.198 156.654 C 357.869 156.024,357.600 155.347,357.600 155.150 C 357.600 154.953,357.222 153.938,356.760 152.896 C 356.298 151.853,355.784 150.640,355.617 150.200 C 355.450 149.760,354.928 148.618,354.457 147.662 C 353.986 146.706,353.600 145.671,353.600 145.362 C 353.600 145.053,353.420 144.800,353.200 144.800 C 352.980 144.800,352.800 144.530,352.800 144.200 C 352.800 143.870,352.620 143.600,352.400 143.600 C 352.180 143.600,352.000 143.240,352.000 142.800 C 352.000 142.360,351.820 142.000,351.600 142.000 C 351.380 142.000,351.200 141.640,351.200 141.200 C 351.200 140.760,351.020 140.400,350.800 140.400 C 350.580 140.400,350.400 140.040,350.400 139.600 C 350.400 139.160,350.220 138.800,350.000 138.800 C 349.780 138.800,349.600 138.440,349.600 138.000 C 349.600 137.560,349.420 137.200,349.200 137.200 C 348.980 137.200,348.800 136.880,348.800 136.488 C 348.800 136.097,348.440 135.517,348.000 135.200 C 347.560 134.883,347.200 134.303,347.200 133.912 C 347.200 133.520,347.020 133.200,346.800 133.200 C 346.580 133.200,346.400 132.840,346.400 132.400 C 346.400 131.960,346.220 131.600,346.000 131.600 C 345.780 131.600,345.600 131.364,345.600 131.075 C 345.600 130.787,345.240 130.164,344.800 129.692 C 344.360 129.220,344.000 128.545,344.000 128.193 C 344.000 127.841,343.847 127.647,343.660 127.763 C 343.473 127.878,343.069 127.484,342.761 126.886 C 342.453 126.289,342.111 125.710,342.001 125.600 C 341.890 125.490,341.457 124.725,341.037 123.900 C 340.617 123.075,340.122 122.400,339.937 122.400 C 339.752 122.400,339.600 122.175,339.599 121.900 C 339.599 121.625,339.059 120.770,338.400 120.000 C 337.741 119.230,337.201 118.415,337.201 118.188 C 337.200 117.962,336.840 117.517,336.400 117.200 C 335.960 116.883,335.600 116.393,335.600 116.112 C 335.600 115.830,335.420 115.600,335.200 115.600 C 334.980 115.600,334.800 115.402,334.800 115.160 C 334.800 114.919,334.260 114.217,333.600 113.600 C 332.940 112.983,332.400 112.291,332.400 112.062 C 332.400 111.832,331.500 110.758,330.400 109.676 C 329.300 108.593,328.400 107.589,328.400 107.444 C 328.400 106.519,312.033 90.420,311.077 90.405 C 310.900 90.402,309.892 89.500,308.837 88.400 C 307.783 87.300,306.785 86.400,306.620 86.400 C 306.456 86.400,305.817 85.860,305.200 85.200 C 304.583 84.540,303.881 84.000,303.640 84.000 C 303.398 84.000,303.200 83.820,303.200 83.600 C 303.200 83.380,302.970 83.200,302.688 83.200 C 302.407 83.200,301.917 82.840,301.600 82.400 C 301.283 81.960,300.838 81.600,300.612 81.599 C 300.385 81.599,299.570 81.059,298.800 80.400 C 298.030 79.741,297.241 79.201,297.047 79.201 C 296.853 79.200,296.371 78.828,295.977 78.374 C 295.583 77.919,295.138 77.585,294.988 77.632 C 294.839 77.678,294.420 77.513,294.058 77.265 C 291.555 75.551,290.314 74.800,289.982 74.800 C 289.772 74.800,289.600 74.620,289.600 74.400 C 289.600 74.180,289.364 74.000,289.075 74.000 C 288.787 74.000,288.164 73.640,287.692 73.200 C 287.220 72.760,286.556 72.400,286.217 72.400 C 285.878 72.400,285.600 72.220,285.600 72.000 C 285.600 71.780,285.240 71.600,284.800 71.600 C 284.360 71.600,284.000 71.420,284.000 71.200 C 284.000 70.980,283.764 70.800,283.475 70.800 C 283.187 70.800,282.564 70.440,282.092 70.000 C 281.620 69.560,281.082 69.200,280.896 69.200 C 280.303 69.200,278.406 68.211,278.403 67.900 C 278.401 67.735,278.040 67.600,277.600 67.600 C 277.160 67.600,276.800 67.420,276.800 67.200 C 276.800 66.980,276.440 66.800,276.000 66.800 C 275.560 66.800,275.200 66.620,275.200 66.400 C 275.200 66.180,274.840 66.000,274.400 66.000 C 273.960 66.000,273.600 65.820,273.600 65.600 C 273.600 65.380,273.251 65.200,272.824 65.200 C 272.397 65.200,271.936 65.020,271.800 64.800 C 271.664 64.580,271.203 64.400,270.776 64.400 C 270.349 64.400,270.000 64.220,270.000 64.000 C 270.000 63.780,269.640 63.600,269.200 63.600 C 268.760 63.600,268.400 63.420,268.400 63.200 C 268.400 62.980,268.040 62.800,267.600 62.800 C 267.160 62.800,266.800 62.659,266.800 62.487 C 266.800 62.315,266.305 62.134,265.700 62.084 C 265.095 62.034,264.540 61.815,264.467 61.597 C 264.393 61.378,263.999 61.200,263.590 61.200 C 263.182 61.200,262.736 61.020,262.600 60.800 C 262.464 60.580,261.913 60.400,261.376 60.400 C 260.839 60.400,260.400 60.250,260.400 60.067 C 260.400 59.883,260.175 59.716,259.900 59.696 C 259.625 59.675,258.680 59.383,257.800 59.047 C 256.920 58.710,255.694 58.427,255.076 58.418 C 254.433 58.407,254.058 58.229,254.200 58.000 C 254.344 57.767,253.945 57.600,253.247 57.600 C 252.587 57.600,251.936 57.420,251.800 57.200 C 251.664 56.980,251.034 56.800,250.400 56.800 C 249.766 56.800,249.136 56.620,249.000 56.400 C 248.864 56.180,248.223 56.000,247.576 56.000 C 246.929 56.000,246.400 55.820,246.400 55.600 C 246.400 55.380,245.680 55.200,244.800 55.200 C 243.920 55.200,243.200 55.020,243.200 54.800 C 243.200 54.580,242.581 54.400,241.824 54.400 C 241.067 54.400,240.336 54.220,240.200 54.000 C 240.064 53.780,239.243 53.600,238.376 53.600 C 237.509 53.600,236.800 53.420,236.800 53.200 C 236.800 52.980,235.990 52.800,235.000 52.800 C 234.010 52.800,233.200 52.620,233.200 52.400 C 233.200 52.178,232.133 52.000,230.800 52.000 C 229.467 52.000,228.400 51.822,228.400 51.600 C 228.400 51.374,227.267 51.200,225.800 51.200 C 224.370 51.200,223.200 51.033,223.200 50.829 C 223.200 49.970,183.930 49.143,183.405 49.991 " stroke="none" fill="#2e95d4" fill-rule="evenodd"></path><path id="path2" d="M172.500 63.492 C 172.225 63.588,172.000 63.849,172.000 64.072 C 172.000 64.294,171.646 64.973,171.214 65.580 C 169.616 67.825,162.960 80.738,161.617 84.200 C 161.447 84.640,161.112 85.450,160.874 86.000 C 158.179 92.218,156.648 100.857,156.656 109.800 C 156.661 115.771,157.100 120.691,157.659 121.036 C 157.847 121.152,158.000 121.678,158.000 122.205 C 158.000 122.731,158.202 123.666,158.450 124.281 C 158.697 124.897,159.034 125.760,159.199 126.200 C 159.827 127.878,161.413 131.006,161.700 131.133 C 161.865 131.207,162.000 131.479,162.000 131.739 C 162.000 132.319,165.396 136.577,168.386 139.747 C 176.523 148.373,190.853 152.049,203.400 148.729 C 209.100 147.220,217.223 142.683,219.494 139.738 C 220.102 138.950,221.230 137.539,222.000 136.605 C 222.770 135.670,223.715 134.519,224.100 134.048 C 224.485 133.576,224.800 133.013,224.800 132.795 C 224.800 132.578,224.980 132.400,225.200 132.400 C 225.420 132.400,225.600 132.130,225.600 131.800 C 225.600 131.470,225.735 131.199,225.900 131.197 C 226.259 131.193,227.200 129.256,227.200 128.520 C 227.200 128.234,227.380 128.000,227.600 128.000 C 227.820 128.000,228.000 127.676,228.000 127.280 C 228.000 126.884,228.149 126.389,228.330 126.180 C 228.645 125.818,229.147 124.209,229.976 120.900 C 231.429 115.102,231.308 106.164,229.693 99.986 C 227.443 91.381,217.601 81.852,207.800 78.789 C 206.920 78.514,205.840 78.153,205.400 77.986 C 204.635 77.697,201.791 77.093,198.800 76.584 C 198.030 76.453,195.330 76.213,192.800 76.050 C 190.270 75.888,187.840 75.614,187.400 75.440 C 185.621 74.741,182.969 73.375,182.471 72.902 C 182.181 72.626,181.807 72.400,181.640 72.400 C 181.011 72.400,175.586 66.571,174.486 64.713 C 173.788 63.534,173.279 63.221,172.500 63.492 M222.627 142.700 C 212.039 154.999,197.430 159.047,181.245 154.166 C 177.340 152.988,170.994 148.911,167.271 145.188 C 164.306 142.223,164.084 142.168,161.105 143.654 C 160.723 143.844,160.059 144.000,159.629 144.000 C 159.199 144.000,158.736 144.180,158.600 144.400 C 158.464 144.620,158.001 144.800,157.571 144.800 C 157.141 144.800,156.432 144.980,155.995 145.200 C 155.558 145.420,154.842 145.780,154.405 146.000 C 153.968 146.220,153.426 146.400,153.201 146.400 C 152.976 146.400,152.028 146.737,151.096 147.148 C 150.163 147.560,148.230 148.394,146.800 149.002 C 142.318 150.907,133.629 155.482,131.138 157.247 C 130.554 157.661,129.879 158.000,129.638 158.000 C 129.397 158.000,129.200 158.150,129.200 158.332 C 129.200 158.515,128.705 158.920,128.100 159.232 C 127.495 159.544,126.910 159.903,126.800 160.029 C 126.690 160.156,125.446 161.038,124.036 161.989 C 122.625 162.939,121.095 164.031,120.636 164.415 C 120.176 164.798,118.270 166.337,116.400 167.835 C 110.735 172.371,101.385 181.989,96.795 188.000 C 96.039 188.990,95.313 189.890,95.180 190.000 C 95.048 190.110,94.156 191.370,93.198 192.800 C 92.239 194.230,91.308 195.460,91.128 195.533 C 90.947 195.607,90.800 195.836,90.800 196.043 C 90.800 196.250,89.385 198.530,87.655 201.110 C 84.122 206.379,81.667 210.738,80.395 214.000 C 79.924 215.210,79.296 216.740,79.002 217.400 C 78.707 218.060,78.083 219.770,77.614 221.200 C 77.146 222.630,76.591 224.113,76.381 224.495 C 76.171 224.877,76.000 225.464,76.000 225.800 C 76.000 226.136,75.838 226.723,75.639 227.105 C 75.440 227.487,75.062 228.610,74.797 229.600 C 74.533 230.590,74.155 231.813,73.958 232.319 C 73.761 232.824,73.600 233.669,73.600 234.195 C 73.600 234.722,73.439 235.252,73.242 235.374 C 73.045 235.495,72.790 236.271,72.675 237.097 C 72.560 237.924,72.270 239.410,72.032 240.400 C 70.938 244.938,70.090 250.378,69.785 254.800 C 69.672 256.450,69.404 259.235,69.189 260.990 C 68.700 264.994,68.687 269.083,69.162 269.377 C 69.362 269.500,70.304 268.656,71.257 267.500 C 72.210 266.345,73.084 265.310,73.200 265.200 C 73.316 265.090,74.215 264.010,75.198 262.800 C 76.181 261.590,77.262 260.330,77.600 260.000 C 77.938 259.670,79.021 258.411,80.007 257.203 C 80.993 255.995,83.488 253.025,85.552 250.603 C 87.615 248.181,89.672 245.750,90.124 245.200 C 91.604 243.395,94.995 239.404,95.222 239.200 C 95.344 239.090,97.406 236.660,99.804 233.800 C 105.510 226.995,108.104 223.924,108.621 223.360 C 108.852 223.108,109.662 222.142,110.421 221.215 C 111.179 220.287,112.137 219.139,112.549 218.664 C 112.961 218.189,115.113 215.640,117.332 213.000 C 119.551 210.360,121.467 208.110,121.589 208.000 C 121.711 207.890,122.615 206.810,123.598 205.600 C 124.581 204.390,125.660 203.130,125.996 202.800 C 126.512 202.293,127.961 200.583,133.276 194.210 C 133.647 193.765,134.340 192.950,134.816 192.400 C 135.291 191.850,137.237 189.544,139.140 187.276 C 142.758 182.964,143.841 182.837,142.428 186.892 C 142.192 187.567,142.000 188.873,142.000 189.795 C 142.000 190.716,141.556 193.884,141.014 196.835 C 140.472 199.786,139.742 203.820,139.391 205.800 C 139.041 207.780,138.576 210.390,138.357 211.600 C 138.139 212.810,137.798 214.790,137.600 216.000 C 137.402 217.210,137.051 219.235,136.820 220.500 C 136.589 221.765,136.220 223.790,136.000 225.000 C 135.780 226.210,135.420 228.190,135.200 229.400 C 134.980 230.610,134.628 232.545,134.417 233.700 C 134.207 234.855,133.659 237.960,133.200 240.600 C 132.741 243.240,132.207 246.300,132.014 247.400 C 131.822 248.500,131.574 249.670,131.464 250.000 C 131.354 250.330,131.154 251.545,131.018 252.700 C 130.670 255.676,130.617 255.684,140.200 251.406 C 144.574 249.454,152.237 246.728,157.600 245.216 C 158.590 244.937,159.760 244.563,160.200 244.385 C 161.022 244.051,162.493 243.705,164.600 243.349 C 165.260 243.237,166.160 242.990,166.600 242.800 C 167.040 242.610,168.030 242.344,168.800 242.209 C 169.570 242.074,171.145 241.792,172.300 241.582 C 178.034 240.539,181.248 240.034,188.000 239.116 C 193.165 238.415,225.914 238.424,231.000 239.128 C 237.490 240.028,245.326 241.435,249.200 242.397 C 250.190 242.643,251.720 243.004,252.600 243.200 C 253.480 243.396,254.920 243.738,255.800 243.960 C 256.680 244.182,257.940 244.476,258.600 244.612 C 259.260 244.749,260.160 245.013,260.600 245.200 C 261.040 245.387,261.850 245.631,262.400 245.742 C 262.950 245.853,264.030 246.124,264.800 246.345 C 285.660 252.310,299.209 251.095,307.246 242.539 C 311.677 237.821,314.652 231.207,315.853 223.400 C 316.928 216.410,315.673 205.054,313.620 203.200 C 313.498 203.090,313.152 202.460,312.850 201.800 C 312.549 201.140,311.750 199.520,311.075 198.200 C 310.401 196.880,309.658 195.396,309.425 194.903 C 309.191 194.410,308.865 194.005,308.700 194.003 C 308.535 194.001,308.400 193.810,308.400 193.578 C 308.400 191.373,292.712 175.106,283.391 167.645 C 273.454 159.691,262.495 152.925,253.200 149.006 C 250.018 147.664,247.233 146.432,246.305 145.956 C 245.923 145.760,245.284 145.600,244.885 145.600 C 244.486 145.600,243.989 145.452,243.780 145.272 C 243.571 145.092,242.050 144.533,240.400 144.031 C 238.750 143.529,237.087 142.956,236.705 142.759 C 236.323 142.562,235.569 142.400,235.029 142.400 C 234.489 142.400,233.948 142.240,233.827 142.044 C 233.620 141.708,232.607 141.472,229.097 140.942 C 228.271 140.818,227.495 140.555,227.374 140.358 C 226.657 139.198,224.892 140.070,222.627 142.700 " stroke="none" fill="#fb8c4b" fill-rule="evenodd"></path><path id="path3" d="M30.963 236.259 C 31.375 243.728,31.661 246.601,32.030 246.980 C 32.234 247.189,32.400 248.483,32.400 249.856 C 32.400 251.229,32.580 252.464,32.800 252.600 C 33.020 252.736,33.200 253.636,33.200 254.600 C 33.200 255.564,33.380 256.464,33.600 256.600 C 33.820 256.736,34.000 257.647,34.000 258.624 C 34.000 259.601,34.180 260.400,34.400 260.400 C 34.620 260.400,34.800 261.199,34.800 262.176 C 34.800 263.153,34.980 264.064,35.200 264.200 C 35.420 264.336,35.600 264.966,35.600 265.600 C 35.600 266.234,35.780 266.864,36.000 267.000 C 36.220 267.136,36.400 267.867,36.400 268.624 C 36.400 269.381,36.580 270.000,36.800 270.000 C 37.020 270.000,37.200 270.630,37.200 271.400 C 37.200 272.170,37.380 272.800,37.600 272.800 C 37.820 272.800,38.000 273.340,38.000 274.000 C 38.000 274.660,38.180 275.200,38.400 275.200 C 38.620 275.200,38.800 275.740,38.800 276.400 C 38.800 277.060,38.980 277.600,39.200 277.600 C 39.420 277.600,39.600 278.140,39.600 278.800 C 39.600 279.460,39.780 280.000,40.000 280.000 C 40.220 280.000,40.400 280.540,40.400 281.200 C 40.400 281.860,40.580 282.400,40.800 282.400 C 41.020 282.400,41.200 282.749,41.200 283.176 C 41.200 283.603,41.380 284.064,41.600 284.200 C 41.820 284.336,42.000 284.774,42.000 285.174 C 42.000 285.573,42.456 286.958,43.014 288.250 C 44.412 291.491,44.620 291.974,45.414 293.800 C 46.867 297.147,50.373 304.004,50.832 304.400 C 50.960 304.510,51.319 305.185,51.630 305.900 C 51.941 306.615,52.331 307.200,52.498 307.200 C 52.664 307.200,52.800 307.478,52.800 307.817 C 52.800 308.156,53.160 308.820,53.600 309.292 C 54.040 309.764,54.400 310.387,54.400 310.675 C 54.400 310.964,54.580 311.200,54.800 311.200 C 55.020 311.200,55.200 311.520,55.200 311.912 C 55.200 312.303,55.560 312.883,56.000 313.200 C 56.440 313.517,56.800 314.014,56.800 314.305 C 56.800 314.596,57.160 315.220,57.600 315.692 C 58.040 316.164,58.400 316.787,58.400 317.075 C 58.400 317.364,58.568 317.600,58.773 317.600 C 58.978 317.600,59.255 317.943,59.388 318.363 C 59.522 318.783,60.524 320.321,61.615 321.781 C 62.707 323.242,63.600 324.542,63.600 324.671 C 63.600 324.801,63.924 325.197,64.319 325.553 C 64.714 325.909,65.471 326.830,66.000 327.600 C 66.529 328.370,67.249 329.270,67.600 329.600 C 67.951 329.930,68.674 330.830,69.208 331.600 C 69.741 332.370,71.038 333.843,72.089 334.874 C 73.140 335.905,74.000 336.856,74.000 336.989 C 74.000 337.544,82.530 346.134,85.586 348.656 C 86.348 349.285,87.951 350.745,89.148 351.900 C 90.345 353.055,91.468 354.000,91.644 354.000 C 91.820 354.000,92.391 354.427,92.912 354.949 C 93.434 355.471,94.241 356.101,94.704 356.349 C 95.324 356.680,123.307 356.800,200.314 356.800 L 305.081 356.800 306.241 355.696 C 306.878 355.088,308.030 354.149,308.800 353.609 C 309.570 353.068,310.834 351.990,311.609 351.213 C 312.385 350.436,314.184 348.810,315.609 347.600 C 318.158 345.435,323.433 340.094,325.000 338.092 C 325.440 337.530,326.702 336.154,327.805 335.035 C 328.907 333.916,330.249 332.370,330.786 331.600 C 331.323 330.830,332.049 329.930,332.400 329.600 C 332.751 329.270,333.471 328.370,334.000 327.600 C 334.529 326.830,335.286 325.909,335.681 325.553 C 336.076 325.197,336.400 324.759,336.400 324.579 C 336.400 324.399,336.734 323.880,337.141 323.426 C 338.098 322.360,341.240 317.724,341.971 316.300 C 342.281 315.695,342.685 315.200,342.868 315.200 C 343.050 315.200,343.200 314.880,343.200 314.488 C 343.200 314.097,343.560 313.517,344.000 313.200 C 344.440 312.883,344.800 312.303,344.800 311.912 C 344.800 311.520,344.980 311.200,345.200 311.200 C 345.420 311.200,345.600 310.964,345.600 310.675 C 345.600 310.387,345.960 309.764,346.400 309.292 C 346.840 308.820,347.200 308.156,347.200 307.817 C 347.200 307.478,347.336 307.200,347.502 307.200 C 347.669 307.200,348.059 306.615,348.370 305.900 C 348.681 305.185,349.040 304.510,349.168 304.400 C 349.867 303.797,352.463 298.570,355.728 291.190 C 357.208 287.846,358.800 283.618,358.800 283.033 C 358.800 282.685,358.980 282.400,359.200 282.400 C 359.420 282.400,359.600 281.860,359.600 281.200 C 359.600 280.540,359.780 280.000,360.000 280.000 C 360.220 280.000,360.400 279.460,360.400 278.800 C 360.400 278.140,360.580 277.600,360.800 277.600 C 361.020 277.600,361.200 277.060,361.200 276.400 C 361.200 275.740,361.380 275.200,361.600 275.200 C 361.820 275.200,362.000 274.660,362.000 274.000 C 362.000 273.340,362.180 272.800,362.400 272.800 C 362.620 272.800,362.800 272.181,362.800 271.424 C 362.800 270.667,362.980 269.936,363.200 269.800 C 363.420 269.664,363.600 269.034,363.600 268.400 C 363.600 267.766,363.780 267.136,364.000 267.000 C 364.220 266.864,364.400 266.234,364.400 265.600 C 364.400 264.966,364.580 264.336,364.800 264.200 C 365.020 264.064,365.200 263.153,365.200 262.176 C 365.200 261.199,365.380 260.400,365.600 260.400 C 365.820 260.400,366.000 259.500,366.000 258.400 C 366.000 257.300,366.180 256.400,366.400 256.400 C 366.620 256.400,366.800 255.511,366.800 254.424 C 366.800 253.337,366.980 252.336,367.200 252.200 C 367.420 252.064,367.600 250.894,367.600 249.600 C 367.600 248.306,367.780 247.136,368.000 247.000 C 368.220 246.864,368.400 245.334,368.400 243.600 C 368.400 241.866,368.580 240.336,368.800 240.200 C 369.329 239.873,369.329 232.400,368.800 232.400 C 368.580 232.400,368.400 233.430,368.400 234.691 C 368.400 235.951,368.134 238.336,367.809 239.991 C 367.484 241.646,366.844 245.160,366.387 247.800 C 365.002 255.797,361.209 269.991,359.225 274.600 C 359.036 275.040,358.664 276.030,358.400 276.800 C 358.136 277.570,357.733 278.650,357.506 279.200 C 356.944 280.560,356.354 282.038,355.990 283.000 C 355.090 285.374,347.741 299.885,345.963 302.800 C 344.822 304.670,343.689 306.604,343.445 307.097 C 343.200 307.590,342.865 307.995,342.700 307.997 C 342.535 307.999,342.400 308.236,342.400 308.525 C 342.400 308.813,342.085 309.408,341.700 309.846 C 341.315 310.285,340.820 310.925,340.600 311.268 C 338.130 315.126,333.547 321.194,328.868 326.800 C 322.404 334.546,305.905 349.766,303.510 350.194 C 302.790 350.322,255.760 350.376,199.000 350.314 L 95.800 350.200 93.800 348.668 C 85.257 342.122,73.049 329.559,64.571 318.590 C 63.895 317.716,62.375 315.560,61.192 313.800 C 60.010 312.040,58.896 310.420,58.717 310.200 C 58.538 309.980,57.528 308.450,56.472 306.800 C 51.352 298.800,44.200 284.372,41.600 276.800 C 41.336 276.030,40.964 275.040,40.775 274.600 C 38.992 270.457,35.442 257.485,33.989 249.800 C 33.740 248.480,33.370 246.645,33.168 245.723 C 32.966 244.800,32.800 243.417,32.800 242.649 C 32.800 241.881,32.624 240.790,32.409 240.224 C 32.194 239.659,31.898 237.752,31.751 235.986 C 31.359 231.288,30.701 231.517,30.963 236.259 M138.396 263.549 C 124.944 267.855,120.839 284.494,130.781 294.415 C 141.083 304.696,158.075 299.767,161.813 285.413 C 165.291 272.060,151.636 259.310,138.396 263.549 M257.119 263.572 C 243.663 267.875,239.586 284.472,249.547 294.404 C 257.030 301.866,268.337 301.710,275.727 294.042 C 277.976 291.708,278.728 290.542,280.007 287.400 C 285.490 273.937,271.208 259.068,257.119 263.572 " stroke="none" fill="#252524" fill-rule="evenodd"></path><path id="path4" d="M172.349 63.075 C 171.874 63.659,171.886 63.718,172.436 63.512 C 173.244 63.210,173.611 63.471,174.808 65.200 C 176.483 67.620,180.424 71.720,181.852 72.529 C 182.172 72.710,181.108 71.540,179.487 69.929 C 177.867 68.318,175.783 65.965,174.858 64.700 C 172.949 62.091,173.080 62.176,172.349 63.075 M171.116 64.888 C 170.251 66.222,169.548 67.600,169.733 67.600 C 170.025 67.600,172.064 64.330,171.884 64.151 C 171.787 64.054,171.442 64.386,171.116 64.888 M168.240 69.840 C 167.662 70.875,167.260 71.794,167.348 71.882 C 167.436 71.970,167.982 71.195,168.560 70.160 C 169.138 69.125,169.540 68.206,169.452 68.118 C 169.364 68.030,168.818 68.805,168.240 69.840 M165.922 74.100 C 164.219 77.162,160.300 86.033,160.543 86.277 C 160.674 86.407,160.892 86.174,161.027 85.757 C 161.417 84.554,161.804 83.696,164.251 78.600 C 167.042 72.789,167.216 72.400,167.021 72.400 C 166.937 72.400,166.443 73.165,165.922 74.100 M185.753 74.686 C 186.532 75.465,189.374 75.982,192.600 75.931 L 196.200 75.875 192.200 75.579 C 190.000 75.417,187.591 75.091,186.846 74.855 C 186.101 74.618,185.609 74.542,185.753 74.686 M197.400 76.400 C 197.840 76.589,198.920 76.736,199.800 76.726 L 201.400 76.708 199.800 76.377 C 198.920 76.195,197.840 76.048,197.400 76.051 L 196.600 76.056 197.400 76.400 M202.200 77.181 C 202.968 77.529,205.110 77.756,204.767 77.453 C 204.675 77.372,203.880 77.196,203.000 77.062 C 201.885 76.893,201.642 76.929,202.200 77.181 M205.374 77.957 C 205.524 78.201,205.973 78.400,206.370 78.400 C 210.587 78.400,222.264 86.586,225.914 92.100 C 227.113 93.913,227.530 94.090,226.523 92.359 C 224.737 89.292,219.209 84.117,215.500 82.040 C 214.675 81.578,213.415 80.874,212.700 80.476 C 210.021 78.983,204.925 77.231,205.374 77.957 M159.457 88.857 C 159.090 89.993,158.859 90.992,158.944 91.077 C 159.028 91.162,159.401 90.304,159.771 89.171 C 160.142 88.039,160.373 87.040,160.285 86.951 C 160.197 86.863,159.824 87.721,159.457 88.857 M158.446 92.067 C 158.421 92.434,158.296 93.064,158.170 93.467 C 157.952 94.162,157.963 94.163,158.397 93.487 C 158.648 93.096,158.773 92.466,158.673 92.087 C 158.511 91.468,158.488 91.466,158.446 92.067 M227.200 94.110 C 227.200 94.171,227.748 95.296,228.418 96.610 C 229.088 97.925,229.515 98.550,229.367 98.000 C 228.902 96.274,227.200 93.218,227.200 94.110 M157.453 96.141 C 157.286 96.988,157.241 97.775,157.355 97.888 C 157.658 98.191,158.097 96.185,157.914 95.332 C 157.820 94.890,157.637 95.211,157.453 96.141 M156.620 101.318 C 156.445 102.813,156.400 104.133,156.518 104.252 C 156.811 104.544,157.322 100.295,157.108 99.353 C 157.013 98.939,156.794 99.823,156.620 101.318 M229.634 99.800 C 229.622 100.240,229.787 100.870,230.000 101.200 C 230.514 101.995,230.514 100.996,230.000 99.800 L 229.656 99.000 229.634 99.800 M230.487 103.400 C 230.491 104.060,230.632 105.140,230.800 105.800 L 231.105 107.000 231.113 105.600 C 231.117 104.830,230.976 103.750,230.800 103.200 C 230.489 102.230,230.480 102.235,230.487 103.400 M230.893 110.000 C 230.893 110.770,230.975 111.085,231.076 110.700 C 231.176 110.315,231.176 109.685,231.076 109.300 C 230.975 108.915,230.893 109.230,230.893 110.000 M230.661 116.800 C 230.483 118.450,230.183 120.340,229.996 121.000 C 229.808 121.660,229.431 123.010,229.158 124.000 C 228.884 124.990,228.512 125.971,228.330 126.180 C 228.149 126.389,228.000 126.884,228.000 127.280 C 228.000 127.676,227.820 128.000,227.600 128.000 C 227.380 128.000,227.200 128.234,227.200 128.520 C 227.200 129.256,226.259 131.193,225.900 131.197 C 225.735 131.199,225.600 131.470,225.600 131.800 C 225.600 132.130,225.420 132.400,225.200 132.400 C 224.980 132.400,224.800 132.578,224.800 132.795 C 224.800 133.013,224.485 133.576,224.100 134.048 C 223.715 134.519,222.770 135.670,222.000 136.605 C 221.230 137.539,220.102 138.950,219.494 139.738 C 217.223 142.683,209.100 147.220,203.400 148.729 C 190.853 152.049,176.523 148.373,168.386 139.747 C 165.396 136.577,162.000 132.319,162.000 131.739 C 162.000 131.479,161.865 131.207,161.700 131.133 C 161.413 131.006,159.827 127.878,159.199 126.200 C 159.034 125.760,158.697 124.897,158.450 124.281 C 158.202 123.666,158.000 122.731,158.000 122.205 C 158.000 121.678,157.820 121.136,157.600 121.000 C 157.380 120.864,157.179 119.998,157.153 119.076 C 157.127 118.154,156.968 116.860,156.800 116.200 L 156.495 115.000 156.454 116.400 C 156.366 119.452,157.997 125.295,160.001 129.106 C 162.493 133.848,163.543 135.327,167.187 139.234 C 169.045 141.227,169.075 141.136,166.372 141.736 L 164.283 142.200 167.157 145.074 C 170.988 148.905,177.292 152.974,181.245 154.166 C 197.740 159.141,211.482 155.197,223.207 142.123 L 225.413 139.663 224.257 139.431 C 223.620 139.304,222.683 139.200,222.174 139.200 C 220.734 139.200,220.740 138.685,222.197 137.141 C 227.085 131.959,231.603 120.924,231.120 115.346 C 231.017 114.157,230.911 114.493,230.661 116.800 M153.400 145.885 C 152.175 146.180,151.798 146.728,152.976 146.503 C 153.546 146.394,154.110 146.146,154.230 145.952 C 154.349 145.759,154.392 145.621,154.324 145.646 C 154.256 145.672,153.840 145.779,153.400 145.885 M149.600 147.433 C 148.248 148.184,149.211 148.155,150.654 147.402 C 151.284 147.074,151.530 146.821,151.200 146.842 C 150.870 146.862,150.150 147.128,149.600 147.433 M146.000 149.000 C 145.450 149.314,145.180 149.572,145.400 149.572 C 145.620 149.572,146.250 149.314,146.800 149.000 C 147.350 148.686,147.620 148.428,147.400 148.428 C 147.180 148.428,146.550 148.686,146.000 149.000 M296.467 179.600 C 304.072 187.171,308.400 192.241,308.400 193.578 C 308.400 193.810,308.591 194.000,308.824 194.000 C 309.316 194.000,309.261 193.898,306.779 190.200 C 305.081 187.672,295.083 177.387,289.814 172.748 C 288.722 171.787,291.716 174.870,296.467 179.600 M106.991 176.100 L 103.800 179.400 107.100 176.209 C 108.915 174.455,110.400 172.970,110.400 172.909 C 110.400 172.618,109.954 173.035,106.991 176.100 M309.200 194.550 C 309.200 194.841,311.271 198.400,311.441 198.400 C 311.536 198.400,311.157 197.500,310.600 196.400 C 309.731 194.686,309.200 193.983,309.200 194.550 M89.853 197.300 L 89.133 198.600 89.958 197.600 C 90.689 196.713,91.014 196.000,90.686 196.000 C 90.624 196.000,90.249 196.585,89.853 197.300 M88.345 199.500 C 86.333 201.934,81.199 210.510,81.201 211.434 C 81.201 211.635,82.084 210.228,83.162 208.306 C 84.240 206.384,86.043 203.459,87.170 201.806 C 89.110 198.959,89.620 197.958,88.345 199.500 M80.431 212.900 C 80.239 213.395,79.706 214.745,79.247 215.900 C 78.787 217.055,78.504 218.000,78.616 218.000 C 78.728 218.000,78.977 217.595,79.169 217.100 C 79.361 216.605,79.894 215.255,80.353 214.100 C 80.813 212.945,81.096 212.000,80.984 212.000 C 80.872 212.000,80.623 212.405,80.431 212.900 M77.226 221.099 C 76.719 222.576,76.209 224.058,76.093 224.392 C 75.956 224.787,76.016 224.859,76.263 224.600 C 76.722 224.118,78.524 218.790,78.303 218.569 C 78.217 218.484,77.733 219.622,77.226 221.099 M74.846 228.067 C 74.821 228.434,74.696 229.064,74.570 229.467 C 74.352 230.162,74.363 230.163,74.797 229.487 C 75.048 229.096,75.173 228.466,75.073 228.087 C 74.911 227.468,74.888 227.466,74.846 228.067 M139.738 262.706 C 139.484 262.868,141.312 263.000,143.800 263.000 C 146.288 263.000,148.116 262.868,147.862 262.706 C 147.608 262.544,145.780 262.412,143.800 262.412 C 141.820 262.412,139.992 262.544,139.738 262.706 M258.539 262.706 C 258.286 262.868,260.114 263.000,262.601 263.000 C 265.089 263.000,266.916 262.868,266.662 262.706 C 266.408 262.544,264.580 262.412,262.600 262.412 C 260.620 262.412,258.793 262.544,258.539 262.706 M137.000 263.600 C 136.708 264.073,137.099 264.073,138.200 263.600 C 138.971 263.269,138.969 263.255,138.124 263.228 C 137.642 263.213,137.136 263.380,137.000 263.600 M150.542 264.032 C 156.115 266.293,159.956 270.726,161.950 277.200 L 162.382 278.600 162.154 277.000 C 161.378 271.538,153.470 263.084,149.266 263.222 C 148.899 263.234,149.474 263.598,150.542 264.032 M255.800 263.600 C 255.508 264.073,255.899 264.073,257.000 263.600 C 257.771 263.269,257.769 263.255,256.924 263.228 C 256.442 263.213,255.936 263.380,255.800 263.600 M269.342 264.032 C 273.490 265.715,277.094 269.068,279.049 273.065 C 279.631 274.254,280.190 275.143,280.292 275.041 C 282.001 273.332,271.297 263.087,267.943 263.222 C 267.644 263.234,268.274 263.598,269.342 264.032 M133.203 265.661 C 130.973 267.151,127.201 271.234,127.200 272.160 C 127.200 272.358,127.719 271.818,128.353 270.960 C 129.962 268.782,132.673 266.300,134.800 265.059 C 135.790 264.481,136.396 264.006,136.146 264.004 C 135.896 264.002,134.572 264.748,133.203 265.661 M251.941 265.609 C 248.226 268.188,245.613 271.903,244.053 276.828 C 243.535 278.462,243.451 284.346,243.935 285.108 C 244.112 285.388,244.178 284.101,244.081 282.249 C 243.713 275.238,247.286 268.662,253.355 265.181 C 254.480 264.535,255.130 264.015,254.800 264.024 C 254.470 264.033,253.183 264.746,251.941 265.609 M126.351 273.900 C 122.410 284.004,127.867 296.616,137.200 298.978 C 137.750 299.117,137.030 298.647,135.600 297.933 C 127.280 293.780,123.212 283.775,126.316 275.100 C 127.137 272.807,127.166 271.811,126.351 273.900 M280.468 276.400 C 280.462 276.950,280.611 277.760,280.800 278.200 L 281.144 279.000 281.132 278.200 C 281.126 277.760,280.976 276.950,280.800 276.400 L 280.480 275.400 280.468 276.400 M162.520 281.200 C 162.520 282.410,162.595 282.905,162.687 282.300 C 162.778 281.695,162.778 280.705,162.687 280.100 C 162.595 279.495,162.520 279.990,162.520 281.200 M280.586 285.285 C 280.429 286.211,280.163 287.246,279.994 287.585 C 279.826 287.923,279.276 289.063,278.772 290.117 C 277.807 292.138,272.442 297.600,271.422 297.600 C 271.106 297.600,270.737 297.778,270.603 297.995 C 269.606 299.608,274.987 295.801,276.947 293.507 C 279.245 290.816,282.260 283.600,281.086 283.600 C 280.968 283.600,280.742 284.358,280.586 285.285 M161.767 285.500 C 161.014 289.703,156.651 295.641,153.067 297.341 C 152.225 297.741,151.633 298.166,151.752 298.286 C 152.160 298.693,155.998 295.920,157.801 293.914 C 160.236 291.206,163.479 284.000,162.263 284.000 C 162.138 284.000,161.915 284.675,161.767 285.500 M244.434 286.488 C 244.259 289.998,251.501 297.822,256.000 298.982 C 256.550 299.124,255.830 298.660,254.400 297.951 C 250.146 295.840,246.111 291.165,244.775 286.800 C 244.584 286.177,244.456 286.059,244.434 286.488 M139.000 299.600 C 139.440 299.789,140.250 299.938,140.800 299.932 L 141.800 299.920 140.800 299.600 C 140.250 299.424,139.440 299.274,139.000 299.268 L 138.200 299.256 139.000 299.600 M146.800 299.600 L 145.800 299.920 146.800 299.932 C 147.350 299.938,148.160 299.789,148.600 299.600 L 149.400 299.256 148.600 299.268 C 148.160 299.274,147.350 299.424,146.800 299.600 M257.800 299.600 C 258.240 299.789,259.050 299.938,259.600 299.932 L 260.600 299.920 259.600 299.600 C 259.050 299.424,258.240 299.274,257.800 299.268 L 257.000 299.256 257.800 299.600 M265.600 299.600 L 264.600 299.920 265.600 299.932 C 266.150 299.938,266.960 299.789,267.400 299.600 L 268.200 299.256 267.400 299.268 C 266.960 299.274,266.150 299.424,265.600 299.600 M148.500 350.300 C 176.825 350.357,223.175 350.357,251.500 350.300 C 279.825 350.243,256.650 350.197,200.000 350.197 C 143.350 350.197,120.175 350.243,148.500 350.300 " stroke="none" fill="#cc743c" fill-rule="evenodd"></path></g></svg>